<svg xmlns="http://www.w3.org/2000/svg" version="1.1" width="206.385" height="255.211" viewBox="-2 -2 208.767 258.158">
  <defs>
    <clipPath id="SvgjsClipPath1006" clipPathUnits="userSpaceOnUse">
      <rect width="212" height="256" x="47.429" y="25.143" ry="0" style="fill:#fff;stroke:#090909"></rect>
    </clipPath>
  </defs>
  <path
    class="themed-path"
    d="M183.437 280.964a20.618 20.618 0 0 1-7.248-2.934c-1.521-.984-1.672-1.11-3.347-2.781a20.31 20.31 0 0 1-3.873-5.455l-.55-1.154h-50.17c-35.488 0-50.589-.052-51.603-.177-8.175-1.002-14.655-7.25-15.995-15.423-.242-1.472-.26-8.827-.216-92.08l.048-90.48.443-1.582c.832-2.972 1.899-5.094 3.616-7.197 2.675-3.272 6.253-5.46 10.578-6.468.878-.205 3.34-.252 15.79-.305l14.75-.062.189-.593c.754-2.365 2.052-4.747 3.593-6.593 1.746-2.091 3.372-3.357 5.758-4.483 1.992-.94 2.833-1.159 5.233-1.36.968-.081 1.466-.197 1.629-.377.13-.143.468-.908.753-1.7 2.092-5.822 6.41-10.267 12.189-12.549.684-.27 2.16-.677 3.28-.905 1.933-.393 2.23-.41 5.876-.346 3.675.065 3.919.09 5.68.562 2.345.629 3.763 1.219 5.584 2.323 1.527.926 2.746 1.89 2.63 2.078-.06.095-.026.119.077.055.37-.229 2.78 2.4 4.141 4.519.72 1.119 1.658 3.118 2.128 4.532.507 1.524.695 1.649 2.831 1.872 3.583.374 6.266 1.641 8.969 4.236 2.248 2.158 3.767 4.493 4.844 7.448l.443 1.215 14.696.089c15.887.096 15.153.056 18.043.976 3.59 1.142 7.14 3.86 9.344 7.155 1.427 2.135 2.107 3.696 2.794 6.42l.344 1.36.05 31.235.05 31.234 8.596.046 8.596.045.916.45c2.92 1.434 3.591 5.451 1.295 7.748-1.075 1.075-1.88 1.366-4.01 1.45l-1.8.072v14.68h3.978c4.426 0 5.806.162 8.328.977 3.164 1.022 5.628 2.536 8.036 4.94 2.465 2.46 3.953 4.851 5.013 8.056 1.118 3.383 1.044-.017 1.044 47.787 0 47.802.074 44.405-1.044 47.786-2.391 7.231-8.396 12.432-15.855 13.733-1.197.209-4.986.24-28.202.228-25.197-.013-26.906-.031-28.262-.303zm55.566-9.635c3.95-1.226 6.742-4.078 7.714-7.878.32-1.25.323-1.658.32-43.837-.003-47.054.074-43.649-1.037-45.988-1.091-2.298-2.951-4.15-5.195-5.17-2.159-.982-.576-.931-28.9-.934-25.291-.002-25.964.005-27.167.314-3.51.897-6.402 3.633-7.554 7.147l-.464 1.417v43.04c0 40.585.016 43.1.282 44.08.548 2.024 1.312 3.31 2.9 4.882 1.922 1.9 3.544 2.748 5.944 3.102.525.077 12.5.129 26.634.114 23.278-.025 25.759-.052 26.523-.289zm-53.262-10.27c-2.074-.741-3.21-2.352-3.23-4.579-.018-1.945.897-3.44 2.637-4.309l.983-.491h25.626c29.05 0 26.518-.122 28.012 1.345 2.44 2.394 1.791 6.343-1.28 7.796l-.969.459-25.6-.007c-20.513-.006-25.715-.048-26.179-.214zm-.061-18.855c-.563-.201-1.646-.92-2.027-1.345-.147-.165-.469-.695-.714-1.179-.373-.734-.446-1.079-.442-2.08.007-1.956.922-3.445 2.65-4.309l.984-.491h25.626c29.05 0 26.517-.122 28.012 1.345 2.005 1.968 2.005 4.942 0 6.91-1.495 1.467 1.04 1.347-27.998 1.332-17.745-.009-25.758-.065-26.091-.183zm0-18.897c-2.092-.82-3.167-2.372-3.177-4.587-.005-.99.068-1.342.417-2.017.6-1.16 1.09-1.69 2.067-2.23l.853-.473 25.76-.042c24.248-.04 25.805-.025 26.542.24 1.02.366 1.992 1.235 2.58 2.305.416.757.47 1.015.473 2.217.002 1.17-.057 1.474-.429 2.18-.237.45-.762 1.111-1.167 1.468-1.414 1.244.793 1.153-27.828 1.14-19.228-.01-25.73-.06-26.091-.2zm5.516-18.663c-3.933-.508-7.324-3.473-8.422-7.364-.257-.907-.294-1.673-.294-6 0-5.347.06-5.876.877-7.68 1.26-2.78 3.936-4.935 6.956-5.601.993-.22 3.607-.244 22.007-.204l20.88.045 1.245.425c3.243 1.106 5.657 3.739 6.52 7.113.278 1.088.315 1.773.312 5.808-.002 3.368-.064 4.862-.234 5.664-.857 4.048-4.39 7.257-8.562 7.78-1.533.193-39.804.205-41.285.014zm40.287-13.404.043-3.72H192.16v3.653c0 2.01.048 3.702.107 3.761.06.059 8.897.089 19.64.067l19.533-.04zm-64.59 67.573c.037-.036.048-5.724.025-12.64l-.042-12.573-27.798-.002c-29.83-.002-28.702.028-30.031-.794-.798-.493-1.628-1.52-1.918-2.371-.32-.938-.318-2.493.003-3.436.33-.971 1.347-2.106 2.368-2.645l.82-.432 28.281-.08 28.282-.08v-15l-.003-15.24c0-.213-3.217-.24-27.982-.24-31.542 0-28.93.107-30.442-1.251-1.09-.98-1.453-1.75-1.544-3.272-.15-2.522 1.18-4.368 3.601-5 .792-.205 4.614-.237 28.616-.237h27.703l.093-3.72c.1-4.06.31-5.63 1.07-8.002 1.007-3.143 2.774-5.927 5.288-8.334 1.767-1.692 3.193-2.688 5.3-3.702 3.264-1.571 5.6-2 10.896-2.001l3.8-.001V143.08l-1.72-.073c-1.27-.054-1.913-.16-2.46-.402-.98-.438-1.908-1.297-2.346-2.173-1.293-2.589-.27-5.52 2.347-6.731.722-.334.942-.343 9.342-.387l8.602-.046-.042-30.834-.043-30.835-.416-1.069c-1.132-2.909-3.43-4.983-6.262-5.65-.84-.198-3.117-.237-14.1-.239l-13.099-.002.096.44c.053.242.143 1.125.2 1.963.36 5.232-2.846 9.766-7.459 10.55-.741.127-10.218.164-33.04.132l-31.999-.045-1.069-.416c-2.9-1.13-4.871-3.4-5.742-6.617-.303-1.117-.338-1.562-.265-3.367.046-1.144.134-2.206.197-2.36.107-.265-.578-.28-13.07-.28-14.469 0-14.036-.026-16.096.976-2.064 1.004-4.044 3.546-4.505 5.782-.124.6-.162 26.612-.132 90.762l.042 89.92.36.954c1.04 2.759 3.578 5.007 6.324 5.604.824.18 9.522.219 50.45.23 27.199.006 49.483-.018 49.52-.055zm-84.973-18.03c-.781-.302-1.41-.871-5.615-5.082-3.056-3.06-4.84-4.968-5.033-5.381-.42-.899-.497-2.72-.16-3.735.34-1.025 1.345-2.164 2.388-2.707.67-.35 1.038-.428 2.02-.432 2.022-.01 2.41.22 5.45 3.219 1.457 1.438 2.718 2.615 2.8 2.615.084 0 2.851-2.705 6.15-6.011 6.636-6.649 6.814-6.79 8.72-6.91 1.45-.091 2.619.326 3.584 1.28 1.026 1.014 1.339 1.736 1.424 3.285.128 2.332.332 2.073-8.96 11.348-8.885 8.867-8.67 8.691-10.768 8.795-.858.043-1.326-.024-2-.284zm0-40.247c-.591-.212-1.573-1.106-5.484-4.995-3.308-3.29-4.872-4.958-5.118-5.46-.243-.496-.371-1.102-.412-1.945-.05-1.065-.001-1.35.38-2.202.821-1.828 2.354-2.803 4.394-2.792 1.894.01 2.349.29 5.432 3.34l2.659 2.63 6.145-6.148c4.189-4.19 6.402-6.289 6.954-6.595.72-.4.97-.449 2.25-.448 1.185.001 1.56.065 2.116.361 1.04.554 1.752 1.26 2.191 2.169.609 1.26.68 2.26.259 3.657l-.352 1.172-8.251 8.268c-5.912 5.923-8.482 8.393-9.065 8.71-1.025.558-2.951.688-4.098.278zm.758-40.063a6.858 6.858 0 0 1-1.217-.462c-.852-.435-9.68-9.268-10.125-10.131-.248-.48-.372-1.064-.423-1.984-.062-1.14-.022-1.412.327-2.173a5.253 5.253 0 0 1 2.244-2.401c.565-.302.926-.361 2.196-.362 1.389 0 1.59.04 2.32.465.44.256 1.912 1.57 3.272 2.92 1.36 1.35 2.478 2.455 2.486 2.455.007 0 2.75-2.733 6.095-6.074 6.862-6.853 6.921-6.898 9.02-6.905 1.98-.006 3.48.915 4.342 2.665.472.96.5 1.115.435 2.365-.056 1.078-.152 1.476-.49 2.044-.23.388-4.077 4.356-8.55 8.818-6.293 6.28-8.293 8.184-8.85 8.427-.88.382-2.272.533-3.082.333zm27.337-7.765c-1.206-.441-2.139-1.308-2.742-2.548-.308-.632-.39-1.052-.388-2 .003-1.903.84-3.372 2.423-4.248l.852-.472 35.274-.041c40.138-.047 36.2-.192 37.776 1.387 1.014 1.014 1.43 1.976 1.43 3.304 0 1.398-.431 2.433-1.434 3.442-1.568 1.578 2.35 1.43-37.515 1.417-30.003-.01-35.141-.045-35.676-.24zM82.292 120.1a6.684 6.684 0 0 1-1.2-.55c-.916-.57-9.339-9.163-9.752-9.95-.321-.61-.38-.952-.38-2.24 0-1.362.045-1.596.43-2.251.939-1.597 2.246-2.42 4.005-2.522 1.945-.113 2.367.134 5.495 3.209 1.5 1.476 2.795 2.684 2.875 2.684.08 0 2.956-2.8 6.39-6.22 5.815-5.791 6.304-6.24 7.106-6.5.618-.2 1.181-.258 2-.205 1.867.122 3.12.937 3.93 2.557.417.835.489 1.157.487 2.194-.003 2.104.21 1.843-8.939 10.97-5.738 5.725-8.395 8.268-8.912 8.53-.92.468-2.584.606-3.535.294zm28.45-7.472c-1.596-.314-3.25-1.744-3.681-3.182-.262-.874-.222-2.388.087-3.297.183-.54.555-1.076 1.173-1.695 1.56-1.56-2.938-1.414 43.302-1.414 40.347 0 40.692.003 41.544.321 1.15.43 2.083 1.262 2.598 2.314 1.459 2.982-.248 6.36-3.514 6.953-1.163.21-80.435.21-81.509 0zM220.72 150.4v-7.28l-8.84-.041-8.84-.042v14.726l8.84-.042 8.84-.041zm-57.04-82.698c0-.164-.293-2.305-.651-4.759-.738-5.057-1.112-6.417-2.231-8.127-1.478-2.258-2.842-3.078-5.502-3.31-1.996-.172-3.499-.613-4.922-1.442-2.316-1.35-3.912-3.313-4.866-5.982-.925-2.59-1.572-3.686-3.025-5.122-2.116-2.092-4.003-2.982-6.988-3.293-3.046-.318-5.913.094-8.023 1.155-2.327 1.17-4.464 3.49-5.31 5.767-1.324 3.557-1.889 4.512-3.613 6.108-1.211 1.122-3.174 2.203-4.549 2.506-.44.097-1.484.238-2.32.312-1.808.16-2.745.527-3.778 1.477a10.172 10.172 0 0 0-2.81 4.274c-.223.64-1.732 9.928-1.732 10.663 0 .039 13.572.071 30.16.071 29.306 0 30.16-.008 30.16-.298zm-46.353-3.292c-2.131-.671-3.655-3.076-3.352-5.289.22-1.609 1.54-3.264 3.074-3.856.759-.293 1.435-.305 16.631-.305h15.84l.91.446c.985.485 1.684 1.18 2.248 2.238.296.557.36.93.36 2.116 0 1.251-.057 1.547-.43 2.254-.5.952-1.338 1.736-2.36 2.21-.723.334-.834.336-16.488.367-12.704.025-15.89-.01-16.433-.181zm13.448-14.329c-2.252-.472-3.745-2.242-3.868-4.584-.08-1.503.46-2.786 1.603-3.814 1.226-1.102 1.843-1.237 5.369-1.175 2.752.048 3.057.082 3.677.413 1.055.564 1.702 1.218 2.205 2.228.387.778.463 1.128.462 2.131 0 2.08-.964 3.543-2.936 4.46-.82.381-1.076.416-3.367.447-1.364.019-2.78-.029-3.145-.106z"
    clip-path="url(#a)"
    transform="translate(-50.417 -25.931)">
  </path>
</svg>
